<svg width="100" height="40" viewBox="0 0 100 40" fill="none" xmlns="http://www.w3.org/2000/svg">
<rect width="100" height="40" rx="20" fill="#2E3192"/>
<path d="M35.42 26L40.46 14.8H42.508L47.564 26H45.388L41.052 15.904H41.884L37.564 26H35.42ZM37.74 23.408L38.3 21.776H44.348L44.908 23.408H37.74ZM48.9884 26V14.8H53.5964C54.5884 14.8 55.4364 14.96 56.1404 15.28C56.855 15.6 57.4044 16.0587 57.7884 16.656C58.1724 17.2533 58.3644 17.9627 58.3644 18.784C58.3644 19.6053 58.1724 20.3147 57.7884 20.912C57.4044 21.5093 56.855 21.968 56.1404 22.288C55.4364 22.608 54.5884 22.768 53.5964 22.768H50.1404L51.0684 21.792V26H48.9884ZM51.0684 22.016L50.1404 21.008H53.5004C54.4177 21.008 55.1057 20.816 55.5644 20.432C56.0337 20.0373 56.2684 19.488 56.2684 18.784C56.2684 18.0693 56.0337 17.52 55.5644 17.136C55.1057 16.752 54.4177 16.56 53.5004 16.56H50.1404L51.0684 15.536V22.016ZM60.4415 26V14.8H62.5215V26H60.4415Z" fill="#F7F7F7"/>
</svg>
