<svg width="100" height="40" viewBox="0 0 100 40" fill="none" xmlns="http://www.w3.org/2000/svg">
<rect width="100" height="40" rx="20" fill="#2E3192"/>
<path d="M30.504 26V14.8H35.752C37.096 14.8 38.12 15.0667 38.824 15.6C39.528 16.1227 39.88 16.8267 39.88 17.712C39.88 18.3093 39.7413 18.8213 39.464 19.248C39.1867 19.664 38.8133 19.9893 38.344 20.224C37.8853 20.448 37.384 20.56 36.84 20.56L37.128 19.984C37.7573 19.984 38.3227 20.1013 38.824 20.336C39.3253 20.56 39.72 20.8907 40.008 21.328C40.3067 21.7653 40.456 22.3093 40.456 22.96C40.456 23.92 40.088 24.6667 39.352 25.2C38.616 25.7333 37.5227 26 36.072 26H30.504ZM32.584 24.368H35.944C36.7227 24.368 37.32 24.24 37.736 23.984C38.152 23.728 38.36 23.3173 38.36 22.752C38.36 22.1973 38.152 21.792 37.736 21.536C37.32 21.2693 36.7227 21.136 35.944 21.136H32.424V19.52H35.528C36.2533 19.52 36.808 19.392 37.192 19.136C37.5867 18.88 37.784 18.496 37.784 17.984C37.784 17.4613 37.5867 17.072 37.192 16.816C36.808 16.56 36.2533 16.432 35.528 16.432H32.584V24.368ZM47.7479 26V24.272L47.6359 23.904V20.88C47.6359 20.2933 47.4599 19.84 47.1079 19.52C46.7559 19.1893 46.2225 19.024 45.5079 19.024C45.0279 19.024 44.5532 19.0987 44.0839 19.248C43.6252 19.3973 43.2359 19.6053 42.9159 19.872L42.1319 18.416C42.5905 18.064 43.1345 17.8027 43.7639 17.632C44.4039 17.4507 45.0652 17.36 45.7479 17.36C46.9852 17.36 47.9399 17.6587 48.6119 18.256C49.2945 18.8427 49.6359 19.7547 49.6359 20.992V26H47.7479ZM45.0599 26.112C44.4199 26.112 43.8599 26.0053 43.3799 25.792C42.8999 25.568 42.5265 25.264 42.2599 24.88C42.0039 24.4853 41.8759 24.0427 41.8759 23.552C41.8759 23.072 41.9879 22.64 42.2119 22.256C42.4465 21.872 42.8252 21.568 43.3479 21.344C43.8705 21.12 44.5639 21.008 45.4279 21.008H47.9079V22.336H45.5719C44.8892 22.336 44.4305 22.448 44.1959 22.672C43.9612 22.8853 43.8439 23.152 43.8439 23.472C43.8439 23.8347 43.9879 24.1227 44.2759 24.336C44.5639 24.5493 44.9639 24.656 45.4759 24.656C45.9665 24.656 46.4039 24.544 46.7879 24.32C47.1825 24.096 47.4652 23.7653 47.6359 23.328L47.9719 24.528C47.7799 25.0293 47.4332 25.4187 46.9319 25.696C46.4412 25.9733 45.8172 26.112 45.0599 26.112ZM56.1383 26.112C55.2423 26.112 54.4423 25.9253 53.7383 25.552C53.0449 25.168 52.5009 24.6453 52.1063 23.984C51.7116 23.3227 51.5143 22.5707 51.5143 21.728C51.5143 20.8747 51.7116 20.1227 52.1063 19.472C52.5009 18.8107 53.0449 18.2933 53.7383 17.92C54.4423 17.5467 55.2423 17.36 56.1383 17.36C56.9703 17.36 57.7009 17.5307 58.3303 17.872C58.9703 18.2027 59.4556 18.6933 59.7863 19.344L58.2503 20.24C57.9943 19.8347 57.6796 19.536 57.3063 19.344C56.9436 19.152 56.5489 19.056 56.1223 19.056C55.6316 19.056 55.1889 19.1627 54.7943 19.376C54.3996 19.5893 54.0903 19.8987 53.8663 20.304C53.6423 20.6987 53.5303 21.1733 53.5303 21.728C53.5303 22.2827 53.6423 22.7627 53.8663 23.168C54.0903 23.5627 54.3996 23.8667 54.7943 24.08C55.1889 24.2933 55.6316 24.4 56.1223 24.4C56.5489 24.4 56.9436 24.304 57.3063 24.112C57.6796 23.92 57.9943 23.6213 58.2503 23.216L59.7863 24.112C59.4556 24.752 58.9703 25.248 58.3303 25.6C57.7009 25.9413 56.9703 26.112 56.1383 26.112ZM63.069 24.096L63.117 21.584L67.581 17.456H69.981L66.189 21.264L65.133 22.144L63.069 24.096ZM61.437 26V14.128H63.437V26H61.437ZM67.885 26L64.765 22.144L66.029 20.544L70.317 26H67.885Z" fill="#F7F7F7"/>
</svg>
