<svg width="100" height="40" viewBox="0 0 100 40" fill="none" xmlns="http://www.w3.org/2000/svg">
<rect width="100" height="40" rx="20" fill="#2E3192"/>
<path d="M32.236 26.16C31.3613 26.16 30.556 26.0213 29.82 25.744C29.0947 25.456 28.46 25.056 27.916 24.544C27.372 24.0213 26.9507 23.408 26.652 22.704C26.3533 22 26.204 21.232 26.204 20.4C26.204 19.568 26.3533 18.8 26.652 18.096C26.9507 17.392 27.372 16.784 27.916 16.272C28.4707 15.7493 29.116 15.3493 29.852 15.072C30.588 14.784 31.3933 14.64 32.268 14.64C33.2173 14.64 34.0707 14.7947 34.828 15.104C35.596 15.4133 36.2413 15.8667 36.764 16.464L35.452 17.744C35.0147 17.3067 34.54 16.9867 34.028 16.784C33.5267 16.5707 32.972 16.464 32.364 16.464C31.7773 16.464 31.2333 16.56 30.732 16.752C30.2307 16.944 29.7987 17.216 29.436 17.568C29.0733 17.92 28.7907 18.336 28.588 18.816C28.396 19.296 28.3 19.824 28.3 20.4C28.3 20.9653 28.396 21.488 28.588 21.968C28.7907 22.448 29.0733 22.8693 29.436 23.232C29.7987 23.584 30.2253 23.856 30.716 24.048C31.2067 24.24 31.7507 24.336 32.348 24.336C32.9027 24.336 33.436 24.2507 33.948 24.08C34.4707 23.8987 34.9667 23.6 35.436 23.184L36.62 24.736C36.0333 25.2053 35.3507 25.5627 34.572 25.808C33.804 26.0427 33.0253 26.16 32.236 26.16ZM34.652 24.464V20.272H36.62V24.736L34.652 24.464ZM42.7874 26.112C42.062 26.112 41.422 25.9787 40.8674 25.712C40.3127 25.4347 39.8807 25.0187 39.5714 24.464C39.262 23.8987 39.1074 23.1893 39.1074 22.336V17.456H41.1074V22.064C41.1074 22.832 41.278 23.408 41.6194 23.792C41.9714 24.1653 42.4674 24.352 43.1074 24.352C43.5767 24.352 43.982 24.256 44.3234 24.064C44.6754 23.872 44.9474 23.584 45.1394 23.2C45.342 22.816 45.4434 22.3413 45.4434 21.776V17.456H47.4434V26H45.5394V23.696L45.8754 24.4C45.5874 24.9547 45.166 25.3813 44.6114 25.68C44.0567 25.968 43.4487 26.112 42.7874 26.112ZM50.062 26V17.456H52.062V26H50.062ZM51.07 16.048C50.6967 16.048 50.3873 15.9307 50.142 15.696C49.9073 15.4613 49.79 15.1787 49.79 14.848C49.79 14.5067 49.9073 14.224 50.142 14C50.3873 13.7653 50.6967 13.648 51.07 13.648C51.4433 13.648 51.7473 13.76 51.982 13.984C52.2273 14.1973 52.35 14.4693 52.35 14.8C52.35 15.152 52.2327 15.4507 51.998 15.696C51.7633 15.9307 51.454 16.048 51.07 16.048ZM58.303 26.112C57.4817 26.112 56.7403 25.9307 56.079 25.568C55.4283 25.1947 54.9163 24.6827 54.543 24.032C54.1697 23.3813 53.983 22.6133 53.983 21.728C53.983 20.8427 54.1697 20.0747 54.543 19.424C54.9163 18.7733 55.4283 18.2667 56.079 17.904C56.7403 17.5413 57.4817 17.36 58.303 17.36C59.0177 17.36 59.6577 17.52 60.223 17.84C60.7883 18.1493 61.2363 18.624 61.567 19.264C61.8977 19.904 62.063 20.7253 62.063 21.728C62.063 22.72 61.903 23.5413 61.583 24.192C61.263 24.832 60.8203 25.312 60.255 25.632C59.6897 25.952 59.039 26.112 58.303 26.112ZM58.543 24.4C59.023 24.4 59.4497 24.2933 59.823 24.08C60.207 23.8667 60.511 23.5573 60.735 23.152C60.9697 22.7467 61.087 22.272 61.087 21.728C61.087 21.1733 60.9697 20.6987 60.735 20.304C60.511 19.8987 60.207 19.5893 59.823 19.376C59.4497 19.1627 59.023 19.056 58.543 19.056C58.063 19.056 57.631 19.1627 57.247 19.376C56.8737 19.5893 56.5697 19.8987 56.335 20.304C56.111 20.6987 55.999 21.1733 55.999 21.728C55.999 22.272 56.111 22.7467 56.335 23.152C56.5697 23.5573 56.8737 23.8667 57.247 24.08C57.631 24.2933 58.063 24.4 58.543 24.4ZM61.135 26V23.984L61.215 21.712L61.055 19.44V14.128H63.039V26H61.135ZM69.6874 26.112C68.738 26.112 67.906 25.9253 67.1914 25.552C66.4874 25.168 65.938 24.6453 65.5434 23.984C65.1594 23.3227 64.9674 22.5707 64.9674 21.728C64.9674 20.8747 65.154 20.1227 65.5274 19.472C65.9114 18.8107 66.434 18.2933 67.0954 17.92C67.7674 17.5467 68.53 17.36 69.3834 17.36C70.2154 17.36 70.9567 17.5413 71.6074 17.904C72.258 18.2667 72.77 18.7787 73.1434 19.44C73.5167 20.1013 73.7034 20.88 73.7034 21.776C73.7034 21.8613 73.698 21.9573 73.6874 22.064C73.6874 22.1707 73.682 22.272 73.6714 22.368H66.5514V21.04H72.6154L71.8314 21.456C71.842 20.9653 71.7407 20.5333 71.5274 20.16C71.314 19.7867 71.0207 19.4933 70.6474 19.28C70.2847 19.0667 69.8634 18.96 69.3834 18.96C68.8927 18.96 68.4607 19.0667 68.0874 19.28C67.7247 19.4933 67.4367 19.792 67.2234 20.176C67.0207 20.5493 66.9194 20.992 66.9194 21.504V21.824C66.9194 22.336 67.0367 22.7893 67.2714 23.184C67.506 23.5787 67.8367 23.8827 68.2634 24.096C68.69 24.3093 69.1807 24.416 69.7354 24.416C70.2154 24.416 70.6474 24.3413 71.0314 24.192C71.4154 24.0427 71.7567 23.808 72.0554 23.488L73.1274 24.72C72.7434 25.168 72.258 25.5147 71.6714 25.76C71.0954 25.9947 70.434 26.112 69.6874 26.112Z" fill="#F7F7F7"/>
</svg>
